<svg width="91" height="91" viewBox="0 0 91 91" fill="none" xmlns="http://www.w3.org/2000/svg">
<circle cx="45.5" cy="45.5" r="45.5" fill="#FF7335"/>
<path d="M56.8069 61.8164C56.6741 63.6523 55.9944 65.0977 54.7678 66.1523C53.5491 67.207 51.9397 67.7344 49.9397 67.7344C47.7522 67.7344 46.0295 67 44.7717 65.5312C43.5217 64.0547 42.8967 62.0312 42.8967 59.4609V58.418C42.8967 56.7773 43.1858 55.332 43.7639 54.082C44.342 52.832 45.1663 51.875 46.2366 51.2109C47.3147 50.5391 48.5647 50.2031 49.9866 50.2031C51.9553 50.2031 53.5413 50.7305 54.7444 51.7852C55.9475 52.8398 56.6428 54.3203 56.8303 56.2266H53.3147C53.2288 55.125 52.9202 54.3281 52.3889 53.8359C51.8655 53.3359 51.0647 53.0859 49.9866 53.0859C48.8147 53.0859 47.9358 53.5078 47.3499 54.3516C46.7717 55.1875 46.4749 56.4883 46.4592 58.2539V59.543C46.4592 61.3867 46.7366 62.7344 47.2913 63.5859C47.8538 64.4375 48.7366 64.8633 49.9397 64.8633C51.0256 64.8633 51.8342 64.6172 52.3655 64.125C52.9045 63.625 53.2131 62.8555 53.2913 61.8164H56.8069ZM58.3655 61.043C58.3655 59.7852 58.6077 58.6641 59.092 57.6797C59.5764 56.6953 60.2717 55.9336 61.178 55.3945C62.092 54.8555 63.1506 54.5859 64.3538 54.5859C66.0647 54.5859 67.4592 55.1094 68.5374 56.1562C69.6233 57.2031 70.2288 58.625 70.3538 60.4219L70.3772 61.2891C70.3772 63.2344 69.8342 64.7969 68.7483 65.9766C67.6624 67.1484 66.2053 67.7344 64.3772 67.7344C62.5491 67.7344 61.0881 67.1484 59.9944 65.9766C58.9084 64.8047 58.3655 63.2109 58.3655 61.1953V61.043ZM61.7522 61.2891C61.7522 62.4922 61.9788 63.4141 62.4319 64.0547C62.885 64.6875 63.5334 65.0039 64.3772 65.0039C65.1975 65.0039 65.8381 64.6914 66.2991 64.0664C66.76 63.4336 66.9905 62.4258 66.9905 61.043C66.9905 59.8633 66.76 58.9492 66.2991 58.3008C65.8381 57.6523 65.1897 57.3281 64.3538 57.3281C63.5256 57.3281 62.885 57.6523 62.4319 58.3008C61.9788 58.9414 61.7522 59.9375 61.7522 61.2891Z" fill="white"/>
</svg>
